<svg width="120" height="120" viewBox="0 0 120 120" fill="none" xmlns="http://www.w3.org/2000/svg">
<rect width="120" height="120" rx="5" fill="#EEEEEE"/>
<path d="M77.1354 53.8352C71.984 48.2059 65.9918 42.7182 63.4781 39.8416C61.6017 37.6819 60.2651 36.0356 59.7164 35.354V35L59.5748 35.177L59.442 35V35.354C58.8932 36.0356 57.5567 37.6819 55.6714 39.8416C53.1665 42.7182 47.1743 48.2059 42.0141 53.8352C36.8539 59.4645 36.4468 65.0761 37.4204 69.7672C38.394 74.4583 43.271 78.8219 50.9361 77.8571C53.051 77.6066 54.9958 76.5742 56.3883 74.9628C56.0042 78.6904 54.4558 82.2023 51.9628 85H66.8327C64.1154 81.9729 63.1595 77.6713 62.8143 74.9982C64.2028 76.5901 66.1334 77.6091 68.2312 77.8571C75.8962 78.8219 80.7732 74.4318 81.7468 69.7672C82.7204 65.1027 82.2956 59.4557 77.1354 53.8352Z" fill="#121212"/>
</svg>
